<svg xmlns="http://www.w3.org/2000/svg" clip-rule="evenodd" fill-rule="evenodd" image-rendering="optimizeQuality" shape-rendering="geometricPrecision" text-rendering="geometricPrecision" xml:space="preserve" viewBox="0.62 2.73 6.84 4.67">
    <defs>
        <style>
            .fil2{fill:#007cc3}.fil1{fill:#28166f}.fil3{fill:#dededd}.fil0{fill:#bae1f8}
        </style>
    </defs>
    <path class="fil0" d="M5.61 3.974c2.07-.468 2.785 3.17.115 3.235 1.662-.819 1.722-2.569-.114-3.235zM2.855 3.311c.738-.649 2.124-.555 2.051 1.034-.294 1.91-2.914 3.66-3.763 1.712-.409-.835.086-1.799 1.195-2.116C1.3 3.837.206 5.003.772 6.379c1.173 2.16 4.392.673 4.57-2.18.067-1.313-1.64-2.045-2.487-.888z"/>
    <path class="fil1" d="M3.165 4.208c.337.02.646.26.659.68H3.72c-.014-.323-.203-.515-.566-.577l.01-.103z"/>
    <path class="fil1" d="M3.156 4.43c.23.014.442.178.45.466h-.07c-.01-.221-.14-.352-.388-.395l.008-.07z"/>
    <path class="fil2" d="M2.237 4.667 2.08 5.92l.147.004.046-.328.224-.089.162.417h.165L2.6 5.438a.85.85 0 0 0 .289-.39c-.048 0-.095-.002-.143-.003-.162.255-.319.394-.47.428l.123-.814-.161.008zM3.135 5.045h.149l-.11.876h-.157z"/>
    <circle class="fil2" cx="3.26" cy="4.784" r=".099"/>
    <path class="fil3" d="m4.204 5.066-.009.101c-.344-.082-.531.012-.56.28-.101.405.133.404.49.36l-.009.088c-.434.103-.712.025-.644-.456.058-.338.277-.49.732-.373zM4.795 5.036c.682.01.375 1.044-.166.885-.48-.085-.38-.897.167-.885zm-.007.1c.532.009.292.816-.13.691-.374-.066-.297-.7.13-.69z"/>
    <path d="M4.788 5.137c.532.008.292.815-.13.69-.374-.066-.296-.7.13-.69z" style="fill:none"/>
    <path class="fil3" d="m5.339 5.899.118-.85.119.004-.018.167c.28-.225.505-.29.587 0 .248-.23.558-.26.561.017l-.074.684-.145-.009.079-.662c-.042-.186-.221-.088-.438.088l-.08.583-.14-.004.08-.605c.024-.232-.12-.225-.434.022l-.075.565h-.14z"/>
    <path class="fil2" d="M1.939 4.991v.107c-.288.006-.61-.06-.584.095-.043.173.599.178.536.498-.04.22-.374.214-.77.16l.01-.12c.31.022.602.057.59-.075.034-.186-.598-.182-.533-.489.013-.197.26-.218.75-.176z"/>
</svg>